# xmcd
#
# Track frame offsets:
#	150
#	12481
#	25704
#	41721
#	53012
#	66955
#	76969
#	91430
#	104997
#	115512
#	127855
#	139013
#	149563
#	164282
#	177407
#	191298
#	205740
#	217366
#	229495
#	242650
#	255988
#	268150
#	280107
#	291136
#	303100
#	314502
#	327866
#
# Disc length: 4531 seconds
#
# Revision: 3
# Processed by: cddbd v1.5.2PL0 Copyright (c) Steve Scherf et al.
# Submitted via: EasyCDDAExtractor 15.3.0.1
#
DISCID=9111b11b
DTITLE=Petula Clark - Sings The International Hits
DYEAR=2000
DGENRE=Englanti Pop
TTITLE0=Never On A Sunday (stereo)
TTITLE1=You Can't Stop Me From Loving You (stereo)
TTITLE2=What Now My Love (stereo)
TTITLE3=Why Don't They Understand (stereo)
TTITLE4=Have I The Right (stereo)
TTITLE5=Volare (stereo)
TTITLE6=One More Sunrise (stereo)
TTITLE7=I Want To Hold Your Hand (stereo)
TTITLE8=Love Me With All Of Your Heart (stereo)
TTITLE9=Boy From Ipanema (stereo)
TTITLE10=I (Who Have Nothing) (stereo)
TTITLE11=Hello Dolly (stereo)
TTITLE12=This Is My Song (stereo)
TTITLE13=Groovin' (stereo)
TTITLE14=Lover Man (stereo)
TTITLE15=San Francisco (Be Sure To Wear Some Flowers In Your Hair) (stereo)
TTITLE16=Eternally (stereo)
TTITLE17=Resist (stereo)
TTITLE18=Don't Sleep In The Subway (stereo)
TTITLE19=Imagine (stereo)
TTITLE20=Love Is Here (stereo)
TTITLE21=How Insensitive (stereo)
TTITLE22=I Will Wait For You (stereo)
TTITLE23=On The Path Of Glory (stereo)
TTITLE24=High (stereo)
TTITLE25=Here Comes The Morning (stereo)
TTITLE26=The Show Is Over (stereo)
EXTD=
EXTT0=
EXTT1=
EXTT2=
EXTT3=
EXTT4=
EXTT5=
EXTT6=
EXTT7=
EXTT8=
EXTT9=
EXTT10=
EXTT11=
EXTT12=
EXTT13=
EXTT14=
EXTT15=
EXTT16=
EXTT17=
EXTT18=
EXTT19=
EXTT20=
EXTT21=
EXTT22=
EXTT23=
EXTT24=
EXTT25=
EXTT26=
PLAYORDER=
